<?xml version="1.0" encoding="UTF-8"?>
<svg id="katman_1" data-name="katman 1" xmlns="http://www.w3.org/2000/svg" viewBox="0 0 790.24 521.06">
  <defs>
    <style>
      .cls-1 {
        fill: #ffc172;
      }

      .cls-2 {
        fill: #b67e46;
      }

      .cls-3 {
        fill: #fec070;
      }

      .cls-4 {
        fill: #757942;
      }

      .cls-5 {
        fill: #757943;
      }

      .cls-6 {
        fill: #fec170;
      }

      .cls-7 {
        fill: #a1a957;
      }

      .cls-8 {
        fill: #a1aa57;
      }

      .cls-9 {
        fill: #7a7c46;
      }

      .cls-10 {
        fill: #a1aa56;
      }

      .cls-11 {
        fill: #767a42;
      }

      .cls-12 {
        fill: #a1ab57;
      }

      .cls-13 {
        fill: #ffc070;
      }

      .cls-14 {
        fill: #a1ab54;
      }

      .cls-15 {
        fill: #a1ab55;
      }
    </style>
  </defs>
  <g id="_Üretken_Nesne" data-name="Üretken Nesne">
    <g>
      <path class="cls-5" d="M495,61.43l-4.14,8.61c-1.22,2.87-2.57,3.66-4.05,2.38-12.29-17.41-25.47-34.01-43.56-45.65-14.95-9.62-29.6-13.17-46.48-16.74-9.66,48.13-7.84,97.4-.35,145.87l18.73,124.4-.93,16.47-2.97,16.5-5.7,26.47-2.74-5.63c-7.52-52.03-15.24-104.09-23.16-156.19-7.29-54.76-10.01-110.39,7.4-163.15.13-1.01-.09-1.98-.71-2.64-3.67-3.92-35.95,11.95-41.82,15.93-16.05,10.87-29.07,25.75-39.74,41.83l-5.32,1.96c-.22-3.82-3.06-6.09-4.08-9.3.64-.91,1.8-1.51,2.66-2.72,34.45-48.18,87.72-77.86,142.62-47.57,20.76,11.45,37.3,27.3,50.26,47.44.99,1.53,2.56,2.24,4.09,1.74Z"/>
      <path class="cls-14" d="M490.86,70.03l-9.56,24.16c-26.32,66.54-48.69,133.46-67.09,202.55l-14.57-94.55c-9.24-65.13-21.59-129.37-4.75-194.37,42.49,1.61,72.51,29,93.77,61.99l2.2.22Z"/>
      <path class="cls-15" d="M405.54,339.72l-8.42,43.49c-.18.95-3.91.93-4.12-.24-18.93-107.33-50.19-211.27-93.56-311.14,20.84-33.44,53.25-62.76,93.4-63.54-12.98,36.35-16.76,72.29-15.12,110.24,3.26,75.5,22.26,147.23,27.82,221.19Z"/>
      <g>
        <path class="cls-11" d="M752.95,267.61l-10.45,3.63-2.39-4.78c6.29-29.9,4.87-63.6-14.84-88.3-21.41,39.95-52.47,73.95-88.84,101.22l-75.85,56.19c-4.35,4.16-8.05,4.91-11.1,2.25l5.29-18.74,4.72-7.52c58.82-40.26,114.72-79.03,158.08-139.32.57-.79,1.39-1.39,2.28-1.94-26.57-21.53-60.17-26.63-93.3-18.37l-5-2.26c.8-2.04.18-4.93,2.17-6.78,44.34-13.1,98.81.58,118.98,43,11.73,24.68,13.81,51.63,7.77,78.27-.4,1.77.18,3.21,2.48,3.45Z"/>
        <path class="cls-8" d="M554.76,319.08l10.56-48.66c1.33-6.15,6.16-10.93,9.18-16.53,18.27-33.88,33.05-68.4,47.05-104.21,34.79-9.46,75.69-6.26,101.19,20.57-31.75,51.13-77.57,84.75-126.27,119.41l-41.71,29.43Z"/>
        <path class="cls-12" d="M742.5,271.24c-72.13,27.57-139.53,62.95-206.31,104.56l13.29-37.99c4.64-1.71,8.34-4.42,12.4-7.43l63.92-47.28c40.07-29.64,77.06-65.19,97.87-111.78,24.84,24.81,27.19,66.48,18.84,99.91Z"/>
      </g>
      <g>
        <path class="cls-2" d="M623.72,142.89c3.82,3.16,1.75,4.94-2.17,6.78.1,2.18.12,4.34-.1,6.49s-.46,4.17-1.17,6.05c-13.98,36.64-31.1,73.71-50.91,106.65l-9.57,43.14-5.04,7.08c5.85,3.22-.58,15.21-5.29,18.74l2.59,2.98-9.2,26.29c59.2-34.42,119.32-68.75,183.51-93.21,2.48-.95,5.14-1.44,7.84-1.88,2.73-.45,5.5-.64,8.29-.76,2.63-5.17,6.09-8.04,10.45-3.63l37.3-13.38c-5.52,30.57-15.81,56.72-30.61,82.21-56.02,96.48-155.94,163.24-265.81,180.63-23.79,3.76-45.85,3-68.51-3.07-19.42,9.13-40.2,9.52-60.08.45-25.91,6.53-51.15,6.06-77.38,1.36-105.31-18.88-202.79-85.46-256.42-178.11-15.14-26.15-26.45-52.3-31.42-83.24l39.02,13.43c3.32-5.11,6.48-1.19,8.46,3.15,2.34-.07,4.67-.06,6.97.19,2.27.25,4.5.54,6.53,1.31,64.36,24.37,126.84,59.39,185.65,94.82l-8.68-26.55,2.5-3.36c-4.45-5.3-12.14-15.48-6.55-21.12l-2.59-1.48c-4.21-12.91-7.45-26.22-9.74-39.92-20.68-40.13-39.81-81.73-56.62-122.92l2.14-3.49c-5.19-2.4-6.11-4.45-1.8-8.11l-12.96-38.5c21.36,3.18,40.62,11.46,60.21,20.18l18.53,8.25c8.26-39.49,23.51-75.31,44.41-108.87l19.88,41.07c6.11-1.27,6.24,4.5,4.08,9.3,4.08,5.09,7.94,10.4,10.69,16.35,16.94,36.75,30.66,78.41,42.89,117.12,17.76,56.22,32.28,113.72,41.99,171.81l6.7-35.63,3.83-1.76c.35-13.97,1.93-27.75,4.9-41.35l3.77-1.63c.06-3.67.2-7.32.59-10.96.39-3.61.83-7.18,1.75-10.63,17.84-67,42.94-142.96,70.24-204.16l4.07-.97c-4.13-2.78-.72-9.8,4.14-8.61l19.39-40.75,12.94,23.07c15.39,27.44,25.81,56.44,31.98,87,25.88-13.38,50.44-23.53,78.07-28.15l-13.66,40.3Z"/>
        <g>
          <path class="cls-13" d="M310,456.68c-70.58-94.96-95.99-215.48-70.5-330.32,7.95-30.94,18.7-59.45,35.59-88.59,48.47,101.43,81.96,206.28,103.82,315.02,7.47,37.16,12.37,72.04,16.24,109.99,10.78-112.14,38.88-223.08,79.18-329.17,12.6-33.18,24.87-64.55,41.18-96.43,16.61,30.33,29.06,60.43,35.97,93.4,15.11,72.13,10.82,144.55-12.9,214.08-14.96,43.87-35.53,84.33-64.97,119.92-27.17,32.84-68.02,63.34-107.77,41.58-22.07-12.08-40.1-28.3-55.84-49.47Z"/>
          <path class="cls-1" d="M260.91,390.07c22,46.55,51.4,91.47,93.3,119.06-25.88,5.15-48.46,2.33-73.22-1.83-124.15-27.56-236.81-116-271.53-241.89,44.17,14.98,85.74,33,127.52,53.85,43.2,21.55,84.24,44.09,123.93,70.81Z"/>
          <path class="cls-1" d="M505.91,507.65c-23.87,4.8-45.16,5.89-69.31,1.37,42.35-28.85,71-72.93,93.5-119.9,78.44-50.01,160.48-92.22,249.88-123.68-4.84,24.14-14.7,45.51-26.54,66.5-51.18,90.69-145.01,155.1-247.53,175.71Z"/>
          <path class="cls-6" d="M228.96,137.23c-7.23,38.23-7.52,74.45-5.95,113.95-23.86-45.06-43.01-91.17-60.12-139.55,23.25,6.07,43.06,15.1,66.07,25.6Z"/>
          <path class="cls-3" d="M567.65,249.5c.34-38.31,1.44-73.78-6.47-110.79,21.03-10.9,41.06-21.32,65.12-26.05-16.53,47.61-33.74,92.3-58.65,136.83Z"/>
        </g>
      </g>
      <g>
        <path class="cls-9" d="M165.3,140.41l1.8,8.11-4.97,2.46c-30.81-5.95-73.3-3.53-92.46,24.02-25.5,21.18-25.59,60.61-19.71,91.11l-2.49,4.93-8.46-3.15c-8.56-47.79.89-98.01,47.85-119.88,24.04-11.2,50.78-12.41,76.58-5.96.88.22,1.76-.19,1.85-1.64Z"/>
        <path class="cls-10" d="M167.1,148.52l6.73,14.35c13.52,39.01,33.41,73.78,50.94,110.89l9.13,42.58c-.21,1.56-1.18,3.59-2.37,3.36-40.82-26.46-83.74-56.58-120.6-91.3-16.81-15.84-30.45-33.06-41.26-53.4-2.25-3.34-1.7-5.73,1.35-8.44,25.88-23.03,63.2-25.4,96.08-18.03Z"/>
        <path class="cls-7" d="M69.68,174.99c22.87,40.47,55.94,74.6,92.82,102.65l72.23,51.54,5.72,8.27,12.37,37.82c-35.64-23.2-71.85-42.78-109.97-61.88-31.66-15.86-62.45-30.1-95.37-42.36-7.32-34.14-6.86-70.65,17.07-97.74,1.07-1.21,4.23.52,5.13,1.7Z"/>
        <path class="cls-4" d="M233.9,316.33l6.55,21.12-74.08-52.67c-36.5-26.55-81.92-69.59-96.69-109.79,9.77,12.78,20.33,27.6,32.81,40.32,27.17,27.69,57.64,50.43,89.23,73.08l31.97,22.93c3.31,2.37,6.02,5.56,10.21,5.01Z"/>
      </g>
    </g>
  </g>
</svg>